<svg width="18105.31px" class='fil0 fil1' height="18105.31px" xmlns="http://www.w3.org/2000/svg">
 <defs>
  <style type="text/css">
   <![CDATA[
    .fil0 {fill:#FEFEFE}
    .fil1 {fill:#1C1B17;fill-rule:nonzero}
   ]]>
  </style>
 </defs>
 <g>
  <title>background</title>
  <rect fill="none" id="canvas_background" height="13563.24" width="18107.31" y="-1" x="-1"/>
 </g>
 <g>
  <title>Layer 1</title>
  <g id="Слой_x0020_1">
   <metadata fill="none" transform="translate(200.01527404785156,-140.0106964111328) translate(600.0458374023438,-380.0290222167969) translate(-620.04736328125,340.0259704589844) translate(780.0595703125,120.00916290283203) translate(-740.0565185546875,-80.00611114501953) translate(800.0610961914062,100.00763702392578) translate(-820.0626220703125,-120.00916290283203) " id="CorelCorpID_0Corel-Layer"/>
   <path fill="none" id="svg_2" d="m2160.285274,6443.247778l-422.83,0l0,243.14l371.84,0c3.41,0 6.67,0.63 9.74,1.92c2.97,1.28 5.72,3.1 8.18,5.48c2.37,2.29 4.23,4.81 5.52,7.46c1.48,2.97 2.22,6.1 2.22,9.32l0,27.23c0,15.45 -8.56,23.19 -25.67,23.19l-371.84,0l0,262.29l422.83,0c7.59,0 13.65,1.89 18.13,5.66c5.02,4.17 7.54,10.03 7.54,17.52l0,27.24c0,16.11 -8.56,24.18 -25.67,24.18l-477.65,0c-7.54,0 -13.52,-2.14 -17.91,-6.4c-4.47,-4.34 -6.71,-10.27 -6.71,-17.78l0,-681.85c0,-5.92 2.28,-11.4 6.8,-16.34c2.32,-2.56 5.05,-4.52 8.09,-5.84c3.09,-1.33 6.33,-2 9.73,-2l477.65,0c3.36,0 6.6,0.65 9.67,1.92c3.02,1.25 5.79,3.1 8.24,5.48c2.38,2.31 4.26,4.81 5.55,7.49c1.46,3.01 2.2,6.13 2.2,9.29l0,27.23c0,16.13 -8.56,24.18 -25.67,24.18l0.02,-0.01zm7034.67,1249.05l99.85,0l0,4519.68l-99.85,0l0,-4519.68zm0,-6849.41l99.85,0l0,4978.97l-99.85,0l0,-4978.97zm-6214.78,2414.06c0,-22.19 0,-44.37 0,-66.56c1616.77,0 3233.53,0 4850.29,0c0,306.19 0,612.39 0,918.59c-19.23,0 -38.45,0 -57.68,0c0,-553.71 -1177.39,-843.15 -2010.24,-843.15c-523.64,0 -1047.27,0 -1570.91,0c0,853.5 0,1707 0,2560.5c-193.78,0 -387.55,0 -581.33,0c0,-125.73 0,-251.47 0,-377.2c0,-1385.95 49.25,-2192.18 -630.14,-2192.18l0.01,0zm7544.97,5113.04c-22.19,0 -44.38,0 -66.57,0c0,304.71 0,609.43 0,914.14c286.35,218.16 767.36,489.19 1250.05,656.4c511.35,177.14 1147.28,204.47 1718.93,76.58c551.2,-123.3 1078.86,-417.87 1427.28,-869.29c331.71,-429.8 418.29,-932.43 248.71,-1457.98c-343.17,0 -293.87,0 -637.05,0c265.63,219.8 410.87,692.77 270.06,1158.84c-181.96,602.2 -786.93,988.95 -1383.02,1090.51c-363.22,61.88 -778.94,31.87 -1229.29,-140.61c-150.27,-57.56 -338.37,-155.38 -529.49,-290.94c-436.7,-309.75 -902.13,-780.78 -1069.6,-1137.66l-0.01,0.01zm4196.84,-4087.99c22.19,0 44.38,0 66.57,0c0,-304.71 0,-609.43 0,-914.14c-650.87,-205.12 -1306.39,-331.07 -1970.28,-314.75c-648.4,15.93 -1314.36,142.94 -1821.35,573.52c-194.25,164.98 -333.62,353.03 -425.96,556.91c-253.51,559.78 -172.7,1198.92 272.58,1638.3c343.17,0 686.34,0 1029.51,0c-339.25,-157.62 -590.43,-339.97 -752.42,-547.34c-267.88,-342.93 -268.46,-728.74 -109.11,-1117.01c61.76,-150.51 146.6,-283.24 252.43,-399.76c566.73,-623.89 1568.24,-742.75 2338.2,-487.2c501.79,166.55 879.08,498.39 1119.84,1011.46l-0.01,0.01zm-11741.81,5631.36c0,22.19 0,44.37 0,66.56c1616.77,0 3233.53,0 4850.29,0c0,-306.19 0,-833.78 0,-1139.98c-19.23,0 -38.45,0 -57.68,0c0,775.58 -1253.29,1064.54 -2352.39,1064.54c-523.64,0 -705.13,0 -1228.76,0c0,-853.5 0,-1364.86 0,-2218.35c-193.78,0 -387.55,0 -581.33,0c0,125.73 0,-70.55 0,55.18c0,1385.95 49.25,2172.05 -630.14,2172.05l0.01,0zm-205.85,-2890.08l387.1,0c7.53,0 13.48,2.16 17.86,6.38c4.51,4.36 6.77,10.31 6.77,17.81l0,26.22c0,7.47 -2.27,13.41 -6.74,17.75c-4.42,4.28 -10.4,6.43 -17.89,6.43l-441.9,0c-7.48,0 -13.47,-2.14 -17.86,-6.38c-4.5,-4.33 -6.77,-10.29 -6.77,-17.8l0,-681.85c0,-3.03 0.65,-6.03 1.91,-8.92c1.17,-2.67 2.82,-5.17 4.93,-7.47c2.37,-2.55 5.06,-4.49 8.03,-5.79c3.03,-1.35 6.31,-2.01 9.76,-2.01l31.22,0c3.19,0 6.32,0.71 9.31,2.17c2.65,1.28 5.15,3.16 7.43,5.65c2.15,2.3 3.8,4.8 4.95,7.43c1.27,2.95 1.9,5.95 1.9,8.94l0,631.43l-0.01,0.01zm899.16,-655.62l31.22,0c7.35,0 13.16,2.22 17.39,6.64c4.14,4.32 6.21,10.16 6.21,17.54l0,681.85c0,7.37 -2.07,13.23 -6.22,17.54c-4.23,4.42 -10.03,6.64 -17.38,6.64l-31.22,0c-7.54,0 -13.52,-2.14 -17.91,-6.4c-4.47,-4.34 -6.71,-10.27 -6.71,-17.78l0,-681.85c0,-7.53 2.25,-13.47 6.75,-17.83c4.36,-4.22 10.31,-6.35 17.87,-6.35zm1194.7,0l30.19,0c7.54,0 13.5,2.13 17.87,6.35c4.5,4.37 6.75,10.31 6.75,17.83l0,681.85c0,7.52 -2.24,13.44 -6.71,17.78c-4.39,4.27 -10.39,6.4 -17.91,6.4l-31.23,0c-6.79,0 -13.03,-1.5 -18.69,-4.46c-5.6,-2.92 -10.42,-7.24 -14.46,-12.9l-449.3,-583.95c1.21,15.87 2.16,32.37 2.87,49.48c1.06,25.66 1.6,52.3 1.6,79.8l0,447.84c0,7.37 -2.08,13.22 -6.21,17.54c-4.23,4.42 -10.04,6.64 -17.39,6.64l-31.22,0c-7.54,0 -13.52,-2.14 -17.91,-6.4c-4.47,-4.34 -6.71,-10.27 -6.71,-17.78l0,-681.85c0,-7.52 2.25,-13.46 6.71,-17.79c4.4,-4.26 10.38,-6.39 17.91,-6.39l31.22,0c5.94,0 11.71,1.66 17.31,4.94c5.02,2.95 9.84,7.27 14.42,12.91l450.67,585.38l-1.76,-38.45c-0.85,-18.06 -1.51,-34.41 -1.95,-49c-0.45,-15.07 -0.69,-27.33 -0.69,-36.7l0,-454.91c0,-7.52 2.25,-13.46 6.71,-17.79c4.4,-4.26 10.38,-6.39 17.91,-6.39l0,0.02zm930.53,18.03l308.68,679.98c0.86,1.37 1.48,2.97 1.84,4.75c0.31,1.62 0.49,3.38 0.49,5.28c0,7.14 -2.45,12.76 -7.3,16.79c-4.33,3.59 -10.11,5.38 -17.34,5.38l-31.22,0c-12.26,0 -22.16,-6.8 -29.63,-20.36l-75.74,-170.28l-391.75,0c-20.92,47.67 -50.65,128.51 -74.75,170.28c-3.5,6.36 -7.61,11.27 -12.27,14.65c-5.22,3.8 -11.03,5.71 -17.35,5.71l-31.22,0c-15.72,0 -23.59,-7.4 -23.59,-22.17c0,-2 0.16,-3.78 0.49,-5.36c0.38,-1.79 1.01,-3.39 1.89,-4.77l307.81,-680.35c2.97,-5.77 7.07,-10.16 12.22,-13.15c5.04,-2.93 10.89,-4.41 17.52,-4.41l32.26,0c6.38,0 12.03,1.51 16.94,4.52c4.88,2.98 8.83,7.36 11.75,13.04l0.23,0.47l0.04,0zm-89.45,178.64l-119.66,270.33l327.07,0c-55.24,-124.77 -110.43,-248.56 -163.54,-374.15l-43.88,103.82l0.01,0zm1702.48,115.15c90.77,16.08 159.1,41.53 204.94,76.27c47.24,35.86 70.86,81.31 70.86,136.38c0,32.79 -6.6,62.53 -19.78,89.17c-13.18,26.62 -32.9,50 -59.11,70.11l-0.11,0.08c-26.31,19.56 -56.45,34.23 -90.38,43.98c-33.67,9.66 -71.13,14.51 -112.27,14.51c-51.31,0 -98.52,-7.26 -141.58,-21.74c-43,-14.46 -81.74,-36.11 -116.17,-64.92c-6.89,-4.33 -10.69,-9.75 -11.35,-16.19c-0.64,-6.42 1.97,-12.76 7.87,-19l20.32,-21.66l2.55,-3.29c3.83,-4.33 8.28,-6.8 13.32,-7.39c4.83,-0.56 9.69,0.68 14.55,3.76c1.54,1.02 3.09,2.19 4.62,3.53c29.88,23.38 62.13,40.96 96.71,52.67c34.63,11.72 71.72,17.6 111.24,17.6c61.07,0 109.48,-12.51 145.16,-37.49c17.35,-12.15 30.37,-26.46 38.98,-42.87c8.57,-16.31 12.87,-34.94 12.87,-55.84c0,-19.14 -4.08,-36.02 -12.23,-50.61c-8.15,-14.59 -20.58,-27.19 -37.2,-37.73c-17.33,-10.98 -40.98,-21.05 -70.87,-30.17c-30.38,-9.27 -67.28,-17.58 -110.61,-24.91c-74.69,-12.42 -130.98,-34.97 -168.81,-67.62c-38.74,-33.45 -58.13,-77.08 -58.13,-130.89c0,-59.21 25.68,-107.31 77.02,-144.3c25.55,-18.51 53.62,-32.38 84.15,-41.6c30.44,-9.19 63.33,-13.8 98.64,-13.8c52.05,0 99.01,7.08 140.84,21.23c42.02,14.21 78.84,35.58 110.43,64.11l0.59,0.54c11.01,11.74 11.46,23.62 1.39,35.56c-5.78,5.29 -12.65,14.74 -18.37,20.88c-5.78,5.6 -11.93,8.41 -18.45,8.41c-6.39,0 -12.44,-2.72 -18.12,-8.11c-53.56,-44.01 -120.02,-66.02 -199.36,-66.02c-55.41,0 -98.72,11.3 -129.9,33.88c-15.21,11.01 -26.57,23.83 -34.04,38.4c-7.48,14.57 -11.22,31.18 -11.22,49.78c0,30.85 14.37,56.55 43.09,77.05c30.32,21.64 76.3,37.72 137.93,48.2l-0.01,0.05zm1326.56,-311.83l31.22,0c7.53,0 13.52,2.13 17.91,6.4c4.46,4.33 6.71,10.27 6.71,17.78l0,391.36c0,48.28 -7.61,92.01 -22.65,131.28c-15.11,39.4 -37.73,74.29 -67.66,104.72l-4.11,4.09c-59.19,57.92 -136.28,87.02 -213.3,87.09c-77.03,0.07 -154.09,-28.88 -213.2,-87.05l-4.07,-4.09c-29.86,-30.51 -52.19,-65.51 -67.05,-104.9c-14.86,-39.4 -22.26,-83.15 -22.26,-131.14l0,-391.36c0,-7.53 2.25,-13.47 6.75,-17.83c4.36,-4.22 10.31,-6.35 17.87,-6.35l31.23,0c7.34,0 13.14,2.22 17.38,6.63c4.14,4.32 6.21,10.18 6.21,17.55l0,380.26c0,39.16 5.4,74.81 16.36,106.71c10.77,31.31 26.95,59.14 48.68,83.26c5.45,6.05 11.07,11.65 16.77,16.75c41.16,36.79 93.39,55.3 145.56,55.33c52.14,0.03 104.29,-18.39 145.35,-55.39c5.88,-5.28 11.43,-10.85 16.61,-16.64c21.68,-24.24 37.88,-52.16 48.68,-83.58c10.94,-31.83 16.36,-67.36 16.36,-106.43l0,-380.26c0,-16.13 8.22,-24.18 24.64,-24.18l0.01,-0.01zm896.86,337.32l324.32,354.89c3.3,3.6 5.38,7.51 6.28,11.55c1,4.53 0.52,9.05 -1.35,13.33c-1.79,4.1 -4.4,7.33 -7.69,9.57c-3.47,2.35 -7.44,3.55 -11.91,3.55l-41.62,0c-6.19,0 -12.31,-1.03 -17.96,-3.31c-5.44,-2.19 -10.41,-5.52 -14.53,-10.15l-292.73,-328.11l-129.88,124.85l0,192.54c0,7.36 -2.09,13.21 -6.23,17.53c-4.23,4.42 -10.03,6.65 -17.36,6.65l-31.23,0c-7.53,0 -13.52,-2.13 -17.91,-6.4c-4.47,-4.34 -6.71,-10.27 -6.71,-17.78l0,-681.85c0,-7.52 2.25,-13.46 6.71,-17.79c4.41,-4.26 10.38,-6.39 17.91,-6.39l31.23,0c7.35,0 13.15,2.23 17.38,6.65c4.14,4.32 6.21,10.18 6.21,17.53l0,391.5l409.55,-402.69c4.55,-4.48 9.76,-7.69 15.43,-9.79c5.92,-2.2 12.2,-3.2 18.68,-3.2l44.73,0c4.5,0 8.39,1.37 11.55,4.02c3,2.52 5.07,6.02 6.05,10.4c0.94,4.11 0.64,8.2 -0.81,12.13c-1.3,3.52 -3.57,6.88 -6.71,9.92l-311.39,300.86l-0.01,-0.01zm1374.63,-337.32l29.13,0c7.56,0 13.51,2.13 17.87,6.35c4.5,4.36 6.75,10.3 6.75,17.83l0,681.85c0,7.52 -2.24,13.44 -6.71,17.78c-4.39,4.26 -10.38,6.4 -17.91,6.4l-29.13,0c-7.73,0 -13.9,-2.06 -18.44,-6.17c-4.83,-4.36 -7.25,-10.37 -7.25,-18.01l0,-314.73l-463.76,0l0,314.73c0,7.35 -2.07,13.19 -6.18,17.5c-4.22,4.45 -10.03,6.68 -17.41,6.68l-31.22,0c-7.54,0 -13.51,-2.13 -17.88,-6.36c-4.51,-4.38 -6.75,-10.3 -6.75,-17.82l0,-681.85c0,-7.52 2.25,-13.46 6.71,-17.79c4.42,-4.26 10.4,-6.39 17.92,-6.39l31.22,0c7.36,0 13.16,2.22 17.38,6.63c4.14,4.32 6.21,10.18 6.21,17.55l0,292.54l463.76,0l0,-292.54c0,-7.65 2.42,-13.67 7.25,-18.02c4.52,-4.1 10.68,-6.16 18.44,-6.16zm929.49,18.03l308.62,679.87c0.89,1.38 1.51,2.98 1.87,4.78c0.35,1.58 0.51,3.36 0.51,5.36c0,7.14 -2.45,12.76 -7.3,16.79c-4.3,3.58 -10.09,5.38 -17.34,5.38l-31.22,0c-12.27,0 -22.15,-6.8 -29.62,-20.36l-75.75,-170.28l-391.75,0c-23.44,53.42 -48.56,119.78 -74.75,170.28c-7.46,13.57 -17.34,20.36 -29.61,20.36l-31.23,0c-15.72,0 -23.59,-7.4 -23.59,-22.17c0,-1.9 0.18,-3.66 0.49,-5.24c0.36,-1.82 0.99,-3.41 1.84,-4.78l307.86,-680.46c2.97,-5.77 7.07,-10.16 12.22,-13.15c5.05,-2.94 10.9,-4.41 17.52,-4.41l32.26,0c6.39,0 12.07,1.51 16.97,4.52c4.87,2.99 8.8,7.36 11.73,13.04l0.23,0.47l0.04,0zm-89.46,178.64l-119.66,270.33l327.08,0c-55.24,-124.78 -110.44,-248.56 -163.55,-374.16l-43.88,103.83l0.01,0zm1434.56,-196.67l30.18,0c7.56,0 13.51,2.13 17.87,6.35c4.5,4.36 6.75,10.3 6.75,17.83l0,681.85c0,7.52 -2.24,13.44 -6.71,17.78c-4.39,4.26 -10.38,6.4 -17.91,6.4l-31.23,0c-6.79,0 -13.03,-1.5 -18.69,-4.46c-5.59,-2.91 -10.42,-7.24 -14.46,-12.9l-449.3,-583.94c1.21,15.85 2.16,32.33 2.87,49.44c1.07,25.68 1.6,52.31 1.6,79.83l0,447.84c0,16.11 -7.87,24.18 -23.59,24.18l-31.23,0c-7.53,0 -13.52,-2.13 -17.91,-6.4c-4.47,-4.34 -6.71,-10.27 -6.71,-17.78l0,-681.85c0,-7.52 2.25,-13.46 6.71,-17.79c4.41,-4.26 10.38,-6.39 17.91,-6.39l31.23,0c5.94,0 11.71,1.66 17.3,4.94c5.05,2.98 9.87,7.3 14.42,12.91l450.67,585.38l-1.76,-38.45c-0.85,-18.06 -1.51,-34.41 -1.95,-49c-0.45,-15.07 -0.69,-27.33 -0.69,-36.7l0,-454.91c0,-7.52 2.25,-13.46 6.71,-17.79c4.42,-4.26 10.4,-6.39 17.92,-6.39l0,0.02zm1320.62,367.12c0,53.66 -8.93,102.9 -26.76,147.68c-17.85,44.83 -44.63,85.08 -80.28,120.68c-35.64,35.58 -75.72,62.3 -120.15,80.12c-44.43,17.81 -93.12,26.72 -146.04,26.72c-52.93,0 -101.63,-8.92 -146.04,-26.72c-44.45,-17.82 -84.51,-44.54 -120.15,-80.12c-35.65,-35.59 -62.43,-75.85 -80.28,-120.68c-17.83,-44.78 -26.76,-94.02 -26.76,-147.68c0,-52.34 8.73,-100.88 26.19,-145.62c17.46,-44.74 43.66,-85.6 78.53,-122.5c34.95,-37 74.9,-64.8 119.78,-83.34c44.79,-18.5 94.39,-27.76 148.72,-27.76c109.01,0 198.54,37.04 268.51,111.11c34.88,36.9 61.07,77.76 78.53,122.5c17.46,44.74 26.19,93.29 26.19,145.62l0.01,-0.01zm-82.56,0c0,-89.38 -27.81,-162.01 -83.42,-217.86l-0.08,-0.08c-27.49,-28.27 -58.45,-49.46 -92.84,-63.53c-34.44,-14.09 -72.56,-21.15 -114.33,-21.15c-41.77,0 -79.9,7.06 -114.34,21.15c-34.39,14.07 -65.34,35.26 -92.83,63.53l-0.08,0.08c-27.41,27.55 -48,59.42 -61.72,95.57c-13.77,36.31 -20.67,77.08 -20.67,122.29c0,44.22 6.88,84.23 20.63,119.98c13.71,35.62 34.3,67.25 61.76,94.85c27.78,27.91 58.95,48.86 93.44,62.81c34.49,13.96 72.43,20.94 113.81,20.94c41.37,0 79.32,-6.98 113.8,-20.94c34.49,-13.96 65.65,-34.9 93.45,-62.81c27.8,-27.94 48.67,-59.73 62.53,-95.39c13.92,-35.76 20.89,-75.59 20.89,-119.44zm1155.16,-367.12l31.23,0c6.83,0 12.32,1.97 16.36,5.9c4.11,3.99 6.19,9.42 6.19,16.26c0,1.4 -0.82,5.27 -2.44,11.56c-34.31,130.61 -237.29,524.81 -305.45,675.43c-5.92,14.03 -16.26,21.06 -31.01,21.06l-30.18,0c-14.59,0 -25.25,-6.94 -31.93,-20.82l-304.95,-673.89c-0.98,-1.97 -1.74,-4.08 -2.24,-6.3c-0.54,-2.29 -0.81,-4.66 -0.81,-7.04c0,-6.99 2.26,-12.52 6.76,-16.53c4.18,-3.74 9.81,-5.63 16.84,-5.63l30.17,0c13.88,0 24.21,6.96 30.89,20.86l0.12,0.24c89.48,200.04 157.58,352.45 204.22,457.17c32.8,73.63 55.03,123.74 66.69,150.31l269.93,-608.23c3.49,-6.36 7.62,-11.27 12.27,-14.65c5.22,-3.8 11.03,-5.71 17.34,-5.71l0,0.01zm832.72,18.03l308.62,679.87c0.89,1.38 1.51,2.98 1.87,4.78c0.35,1.58 0.51,3.36 0.51,5.36c0,7.14 -2.45,12.76 -7.3,16.79c-4.3,3.58 -10.09,5.38 -17.33,5.38l-31.23,0c-12.27,0 -22.15,-6.8 -29.62,-20.36l-75.74,-170.28l-391.76,0c-23.44,53.42 -48.56,119.78 -74.75,170.28c-7.46,13.57 -17.34,20.36 -29.61,20.36l-31.22,0c-15.73,0 -23.6,-7.4 -23.6,-22.17c0,-1.9 0.18,-3.66 0.49,-5.24c0.36,-1.82 0.99,-3.41 1.84,-4.78l307.87,-680.46c2.96,-5.76 7.03,-10.14 12.19,-13.13c5.01,-2.96 10.89,-4.43 17.54,-4.43l32.26,0c6.39,0 12.07,1.51 16.97,4.52c4.87,2.99 8.8,7.36 11.73,13.04l0.23,0.47l0.04,0zm-89.45,178.64l-119.67,270.33l327.08,0c-55.24,-124.78 -110.43,-248.56 -163.54,-374.16l-43.88,103.83l0.01,0z" class="fil1"/>
  </g>
 </g>
</svg>